<svg id="Layer_1" data-name="Layer 1" xmlns="http://www.w3.org/2000/svg" xmlns:xlink="http://www.w3.org/1999/xlink" viewBox="0 0 1500 1000"><defs><style>.cls-1{fill:none;}.cls-2{clip-path:url(#clip-path);}.cls-3{fill:#c7323e;}.cls-4{fill:#4ba556;}.cls-5{fill:#fff;}.cls-6{fill:#fcfdff;}</style><clipPath id="clip-path"><circle class="cls-1" cx="750" cy="500" r="331"/></clipPath></defs><title>Flag-of-Belarus</title><g class="cls-2"><polygon class="cls-3" points="479.68 865.89 514.48 865.89 549.28 865.89 583.61 865.89 584.08 865.89 618.4 865.89 618.88 865.89 653.69 865.89 665.28 865.89 1500.5 865.89 1500.5 643.53 1500.5 134.11 665.28 134.11 653.69 134.11 630.48 134.11 572.47 134.11 537.67 134.11 533.05 134.11 530.71 134.11 526.09 134.11 491.28 134.11 433.27 134.11 410.08 134.11 402.1 134.11 402.1 136.51 402.1 162.73 402.1 175.84 402.1 202.07 402.1 215.19 402.1 254.53 402.1 267.64 402.1 306.97 402.1 320.08 402.1 346.31 402.1 372.54 402.1 398.77 402.1 411.88 402.1 424.99 402.1 464.33 402.1 556.11 402.1 595.46 402.1 608.57 402.1 621.68 402.1 643.53 402.1 647.91 402.1 674.13 402.1 700.35 402.1 713.47 402.1 752.81 402.1 765.92 402.1 805.25 402.1 818.37 402.1 844.61 402.1 857.72 402.1 865.89 410.08 865.89 444.35 865.89 444.87 865.89 479.17 865.89 479.68 865.89"/><polygon class="cls-4" points="479.68 865.89 514.48 865.89 549.28 865.89 583.61 865.89 584.08 865.89 618.4 865.89 618.88 865.89 653.69 865.89 665.28 865.89 1500.5 865.89 1500.5 643.53 665.28 643.53 653.69 643.53 595.69 643.53 572.47 643.53 533.05 643.53 530.71 643.53 491.28 643.53 468.07 643.53 410.08 643.53 402.1 643.53 402.1 647.91 402.1 674.13 402.1 700.35 402.1 713.47 402.1 752.81 402.1 765.92 402.1 805.25 402.1 818.37 402.1 844.61 402.1 857.72 402.1 865.89 410.08 865.89 444.35 865.89 444.87 865.89 479.17 865.89 479.68 865.89"/><rect class="cls-5" x="402.1" y="134.11" width="196.4" height="731.78"/><path class="cls-3" d="M436.25,134.11h25.62v12h8.54v12H479v12h8.54v12H496v12h-8.54v12H479v12h-8.54v12h-8.54v12h-8.54v12H444.8v-12h-8.55v-12h-8.53v-12h-8.54v-12h-8.54v-12H402.1v-12h8.54v-12h8.54v-12h8.54v-12h8.53Zm8.55,24h8.53v12h8.54v12h8.54v12h-8.54v12h-8.54v12H444.8v-12h-8.55v-12h-8.53v-12h8.53v-12h8.55Zm0,24h8.54v12H444.8Zm-42.7-36h8.54v12H402.1Zm0,72h8.54v12H402.1Zm93.93-84h5.13v24H496Zm0,84h5.13v24H496Zm-76.83,24h8.52v12h8.53v12h8.55v12h-8.55v12h-8.53v12h-8.54v-12h-8.54v-12H402.1v-12h8.54v-12h8.54Zm0,24h8.52v12h-8.54Zm51.22-24H479v12h8.54v12H496v12h-8.55v12H479v12h-8.54v-12h-8.54v-12h-8.54v-12h8.54v-12h8.54Zm0,24H479v12h-8.55Zm-68.32,48h8.54v12H402.1Zm93.93-12h5.13v24H496Z"/><path class="cls-3" d="M402.1,350h8.54v-12h8.54v-12h8.54v-12h8.53v-12h8.55v-12h8.53v12h8.54v12h8.54v12H479v12h8.54v12H496v12h5.13v48H496v12h-8.54v12H479v12h-8.54v12h-8.54v12h-8.54v31.19H436.25V494h-8.53V482h-8.54V470h-8.54V458H402.1V422h8.54v12h8.54v12h8.54v12h8.53V446h8.55V434h8.53V422h8.54V410h8.54V398H479V386h-8.54V374h-8.54V362H436.26v12h17.07v12H444.8v12h-8.55v12h-8.53V398h-8.54V386h-8.54V374H402.1Zm0,48h8.54v12H402.1ZM496,434h5.13v12H496ZM479,458h8.54v12H496v12h5.13v19.2H496V494h-8.54V482H479Zm-17.08,36h8.54v7.2h-8.54Z"/><path class="cls-3" d="M564.35,134.11H538.74v12h-8.55v12h-8.54v12h-8.54v12h-8.54v12h8.54v12h8.54v12h8.54v12h8.54v12h8.54v12h8.54v-12h8.54v-12h8.54v-12h8.53v-12H590v-12h8.53v-12H590v-12h-8.55v-12h-8.53v-12h-8.54Zm-8.54,24h-8.54v12h-8.54v12h-8.54v12h8.54v12h8.54v12h8.54v-12h8.54v-12h8.54v-12h-8.54v-12h-8.54Zm0,24h-8.54v12h8.54Zm42.69-36H590v12h8.54Zm0,72H590v12h8.54Zm-93.93-84h-5.12v24h5.12Zm0,84h-5.12v24h5.12Zm76.84,24h-8.52v12h-8.54v12h-8.54v12h8.54v12h8.54v12h8.53v-12H590v-12h8.53v-12H590v-12h-8.55Zm0,24h-8.53v12h8.54Zm-51.22-24h-8.54v12h-8.54v12h-8.54v12h8.54v12h8.54v12h8.54v-12h8.54v-12h8.54v-12h-8.54v-12h-8.54Zm0,24h-8.54v12h8.54Zm68.31,48H590v12h8.54Zm-93.93-12h-5.12v24h5.12Z"/><path class="cls-3" d="M598.5,350H590v-12h-8.55v-12h-8.53v-12h-8.54v-12h-8.54v-12h-8.54v12h-8.54v12h-8.54v12h-8.54v12h-8.54v12h-8.54v12h-5.12v48h5.12v12h8.54v12h8.54v12h8.54v12h8.54v12h8.54v31.19h17.08V494h8.54V482h8.53V470H590V458h8.53V422H590v12h-8.55v12h-8.53v12h-8.54V446h-8.54V434h-8.54V422h-8.54V410h-8.54V398h-8.54V386h8.54V374h8.54V362h25.61v12H547.27v12h8.54v12h8.54v12h8.54V398h8.53V386H590V374h8.53Zm0,48H590v12h8.54Zm-93.93,36h-5.12v12h5.12Zm17.08,24h-8.54v12h-8.54v12h-5.12v19.2h5.12V494h8.54V482h8.54Zm17.08,36h-8.54v7.2h8.54Z"/><polygon class="cls-6" points="453.69 217.68 445.14 217.68 445.14 205.69 436.61 205.69 436.61 193.69 428.07 193.69 428.07 181.69 436.61 181.69 436.61 169.7 445.14 169.7 445.14 157.7 453.69 157.7 453.69 169.7 462.23 169.7 462.23 181.69 470.76 181.69 470.76 193.69 462.23 193.69 462.23 205.69 453.69 205.69 453.69 217.68"/><polygon class="cls-6" points="556.19 217.68 547.65 217.68 547.65 205.69 539.11 205.69 539.11 193.69 530.57 193.69 530.57 181.69 539.11 181.69 539.11 169.7 547.65 169.7 547.65 157.7 556.19 157.7 556.19 169.7 564.74 169.7 564.74 181.69 573.27 181.69 573.27 193.69 564.74 193.69 564.74 205.69 556.19 205.69 556.19 217.68"/><rect class="cls-3" x="445.15" y="181.69" width="8.54" height="11.99"/><rect class="cls-3" x="547.27" y="182.09" width="8.54" height="11.99"/><rect class="cls-5" x="573.27" y="266.69" width="8.54" height="11.99"/><rect class="cls-5" x="521.4" y="265.85" width="8.54" height="11.99"/><rect class="cls-5" x="470.76" y="265.85" width="8.54" height="11.99"/><rect class="cls-5" x="419.53" y="265.85" width="8.54" height="11.99"/><path class="cls-3" d="M436.25,865.89h25.62v-12h8.54v-12H479v-12h8.54v-12H496v-12h-8.54v-12H479v-12h-8.54v-12h-8.54v-12h-8.54v-12H444.8v12h-8.55v12h-8.53v12h-8.54v12h-8.54v12H402.1v12h8.54v12h8.54v12h8.54v12h8.53Zm8.55-24h8.53v-12h8.54v-12h8.54v-12h-8.54v-12h-8.54v-12H444.8v12h-8.55v12h-8.53v12h8.53v12h8.55Zm0-24h8.54v-12H444.8Zm-42.7,36h8.54v-12H402.1Zm0-72h8.54v-12H402.1Zm93.93,84h5.13v-24H496Zm0-84h5.13v-24H496Zm-76.83-24h8.52v-12h8.53v-12h8.55v-12h-8.55v-12h-8.53v-12h-8.54v12h-8.54v12H402.1v12h8.54v12h8.54Zm0-24h8.52v-12h-8.54Zm51.22,24H479v-12h8.54v-12H496v-12h-8.55v-12H479v-12h-8.54v12h-8.54v12h-8.54v12h8.54v12h8.54Zm0-24H479v-12h-8.55Zm-68.32-48h8.54V674H402.1Zm93.93,12h5.13v-24H496Z"/><path class="cls-3" d="M402.1,650h8.54v12h8.54v12h8.54v12h8.53v12h8.55v12h8.53v-12h8.54v-12h8.54V674H479V662h8.54V650H496V638h5.13V590H496V578h-8.54V566H479V554h-8.54V542h-8.54V530h-8.54V498.8H436.25V506h-8.53v12h-8.54v12h-8.54v12H402.1v36h8.54V566h8.54V554h8.54V542h8.53v12h8.55v12h8.53v12h8.54v12h8.54v12H479v12h-8.54v12h-8.54v12H436.26V626h17.07V614H444.8V602h-8.55V590h-8.53v12h-8.54v12h-8.54v12H402.1Zm0-48h8.54V590H402.1ZM496,566h5.13V554H496ZM479,542h8.54V530H496V518h5.13V498.8H496V506h-8.54v12H479Zm-17.08-36h8.54v-7.2h-8.54Z"/><path class="cls-3" d="M564.35,865.89H538.74v-12h-8.55v-12h-8.54v-12h-8.54v-12h-8.54v-12h8.54v-12h8.54v-12h8.54v-12h8.54v-12h8.54v-12h8.54v12h8.54v12h8.54v12h8.53v12H590v12h8.53v12H590v12h-8.55v12h-8.53v12h-8.54Zm-8.54-24h-8.54v-12h-8.54v-12h-8.54v-12h8.54v-12h8.54v-12h8.54v12h8.54v12h8.54v12h-8.54v12h-8.54Zm0-24h-8.54v-12h8.54Zm42.69,36H590v-12h8.54Zm0-72H590v-12h8.54Zm-93.93,84h-5.12v-24h5.12Zm0-84h-5.12v-24h5.12Zm76.84-24h-8.52v-12h-8.54v-12h-8.54v-12h8.54v-12h8.54v-12h8.53v12H590v12h8.53v12H590v12h-8.55Zm0-24h-8.53v-12h8.54Zm-51.22,24h-8.54v-12h-8.54v-12h-8.54v-12h8.54v-12h8.54v-12h8.54v12h8.54v12h8.54v12h-8.54v12h-8.54Zm0-24h-8.54v-12h8.54Zm68.31-48H590V674h8.54Zm-93.93,12h-5.12v-24h5.12Z"/><path class="cls-3" d="M598.5,650H590v12h-8.55v12h-8.53v12h-8.54v12h-8.54v12h-8.54v-12h-8.54v-12h-8.54V674h-8.54V662h-8.54V650h-8.54V638h-5.12V590h5.12V578h8.54V566h8.54V554h8.54V542h8.54V530h8.54V498.8h17.08V506h8.54v12h8.53v12H590v12h8.53v36H590V566h-8.55V554h-8.53V542h-8.54v12h-8.54v12h-8.54v12h-8.54v12h-8.54v12h-8.54v12h8.54v12h8.54v12h25.61V626H547.27V614h8.54V602h8.54V590h8.54v12h8.53v12H590v12h8.53Zm0-48H590V590h8.54Zm-93.93-36h-5.12V554h5.12Zm17.08-24h-8.54V530h-8.54V518h-5.12V498.8h5.12V506h8.54v12h8.54Zm17.08-36h-8.54v-7.2h8.54Z"/><polygon class="cls-6" points="546.92 782.32 555.46 782.32 555.46 794.32 564 794.32 564 806.32 572.54 806.32 572.54 818.31 564 818.31 564 830.31 555.46 830.31 555.46 842.3 546.92 842.3 546.92 830.31 538.38 830.31 538.38 818.31 529.84 818.31 529.84 806.32 538.38 806.32 538.38 794.32 546.92 794.32 546.92 782.32"/><polygon class="cls-6" points="444.41 782.32 452.95 782.32 452.95 794.32 461.49 794.32 461.49 806.32 470.03 806.32 470.03 818.31 461.49 818.31 461.49 830.31 452.95 830.31 452.95 842.3 444.41 842.3 444.41 830.31 435.87 830.31 435.87 818.31 427.33 818.31 427.33 806.32 435.87 806.32 435.87 794.32 444.41 794.32 444.41 782.32"/><rect class="cls-3" x="546.91" y="806.31" width="8.54" height="11.99"/><rect class="cls-3" x="444.8" y="805.9" width="8.54" height="11.99"/><rect class="cls-5" x="418.79" y="721.31" width="8.54" height="11.99"/><rect class="cls-5" x="470.67" y="722.16" width="8.54" height="11.99"/><rect class="cls-5" x="521.3" y="722.16" width="8.54" height="11.99"/><rect class="cls-5" x="572.54" y="722.16" width="8.54" height="11.99"/></g></svg>