<svg id="Layer_1" data-name="Layer 1" xmlns="http://www.w3.org/2000/svg" xmlns:xlink="http://www.w3.org/1999/xlink" viewBox="0 0 1500 1000"><defs><style>.cls-1{fill:none;}.cls-2{clip-path:url(#clip-path);}.cls-3{fill:#fff;}.cls-4{fill:#d02027;}.cls-5{fill:#18325b;}</style><clipPath id="clip-path"><circle class="cls-1" cx="750" cy="500" r="331"/></clipPath></defs><title>Flag-of-Great Britain</title><g class="cls-2"><rect class="cls-3" x="143.79" y="95.86" width="1212.42" height="808.28"/><polyline class="cls-4" points="1356.21 419.17 810.62 419.17 810.62 95.86 689.38 95.86 689.38 419.17 143.79 419.17 143.79 580.83 689.38 580.83 689.38 904.14 810.62 904.14 810.62 580.83 1356.21 580.83"/><path class="cls-4" d="M952.07,634.72h90.36l313.78,209.17v60.25M547.93,365.28H457.57L143.79,156.11V95.86Zm0,269.44H638.3L234.17,904.14H143.79ZM952.07,365.28H861.7L1265.83,95.86h90.38Z"/><path class="cls-5" d="M143.79,634.72v179l268.59-179m943.83,0v179l-268.59-179ZM143.79,365.28v-179l268.59,179Zm1212.42,0v-179l-268.59,179ZM649,904.14V657.73L279.35,904.14Zm202.06,0V657.73l369.63,246.41ZM649,95.86V342.27L279.35,95.86Zm202.06,0V342.27L1220.66,95.86Z"/></g></svg>
