<svg width="30" height="30" viewBox="0 0 30 30" fill="none" xmlns="http://www.w3.org/2000/svg">
<path fill-rule="evenodd" clip-rule="evenodd" d="M23.3833 14.2958C23.3833 19.3444 20.2745 20.4072 17.3516 20.7524C17.8293 21.1515 18.2285 21.9479 18.2285 23.1709V26.8106C18.2285 27.1833 18.494 27.5815 19.1585 27.4487C24.3665 25.6948 28.1133 20.7789 28.1133 14.9865C28.1398 7.73224 22.2408 1.86023 15.0135 1.86023C7.75873 1.86023 1.88672 7.73218 1.88672 14.9865C1.88672 20.7789 5.63312 25.7213 10.8414 27.4487C11.5056 27.5549 11.771 27.1567 11.771 26.8106V24.5522C8.10425 25.3497 7.30737 22.8249 7.30737 22.8249C6.72247 21.3108 5.84589 20.9116 5.84589 20.9116C4.64996 20.0887 5.95215 20.1152 5.95215 20.1152C7.25391 20.1949 7.94501 21.4435 7.94501 21.4435C9.11395 23.463 11.0538 22.8515 11.798 22.5329C11.9308 21.6824 12.2763 21.0718 12.6481 20.7524C9.7251 20.4072 6.61627 19.3444 6.61627 14.2958C6.61627 12.8608 7.12115 11.6914 7.94501 10.7878C7.81232 10.4427 7.38702 9.14056 8.10425 7.33392C8.10425 7.33392 9.16705 6.98834 11.6914 8.66223C12.7277 8.37024 13.8971 8.1839 15.0135 8.1839C16.1028 8.1839 17.2719 8.37024 18.3347 8.66223C20.832 6.98834 21.8948 7.33392 21.8948 7.33392C22.6125 9.14056 22.1877 10.4427 22.055 10.7878C22.878 11.6915 23.3833 12.8608 23.3833 14.2958ZM15.0135 0C23.2771 0 30 6.72247 30 15.0135C30 23.2771 23.2771 30 15.0135 30C6.72247 30 0 23.2771 0 15.0135C0 6.72247 6.72247 0 15.0135 0ZM12 14C12 12.8954 12.8954 12 14 12H16C17.1046 12 18 12.8954 18 14V16C18 17.1046 17.1046 18 16 18H14C12.8954 18 12 17.1046 12 16V14ZM13 14C13 13.4477 13.4477 13 14 13H16C16.5523 13 17 13.4477 17 14V16C17 16.5523 16.5523 17 16 17H14C13.4477 17 13 16.5523 13 16V14Z" fill="#666A80"/>
</svg>
