<svg width="30" height="30" viewBox="0 0 30 30" fill="none" xmlns="http://www.w3.org/2000/svg">
<path fill-rule="evenodd" clip-rule="evenodd" d="M23.3833 14.2958C23.3833 19.3444 20.2745 20.4072 17.3515 20.7524C17.8294 21.1515 18.2285 21.9479 18.2285 23.1709V26.8106C18.2285 27.1833 18.4939 27.5815 19.1585 27.4487C24.3664 25.6948 28.1133 20.7789 28.1133 14.9865C28.1398 7.73226 22.2408 1.86023 15.0135 1.86023C7.75875 1.86023 1.88672 7.73221 1.88672 14.9865C1.88672 20.7789 5.63314 25.7213 10.8414 27.4487C11.5056 27.5549 11.771 27.1567 11.771 26.8106V24.5522C8.10428 25.3496 7.3074 22.8249 7.3074 22.8249C6.72246 21.3108 5.8459 20.9116 5.8459 20.9116C4.64994 20.0887 5.95213 20.1152 5.95213 20.1152C7.25391 20.1949 7.94502 21.4435 7.94502 21.4435C9.11396 23.4629 11.0538 22.8515 11.798 22.5329C11.9308 21.6824 12.2763 21.0718 12.648 20.7524C9.7251 20.4072 6.61629 19.3444 6.61629 14.2958C6.61629 12.8609 7.12113 11.6914 7.94502 10.7879C7.8123 10.4428 7.38703 9.14057 8.10428 7.33395C8.10428 7.33395 9.16705 6.98836 11.6914 8.66221C12.7277 8.37023 13.8971 8.18391 15.0135 8.18391C16.1029 8.18391 17.2719 8.37023 18.3347 8.66221C20.832 6.98836 21.8948 7.33395 21.8948 7.33395C22.6125 9.14057 22.1878 10.4428 22.055 10.7879C22.878 11.6914 23.3833 12.8609 23.3833 14.2958ZM15.0135 0C23.2771 0 30 6.72246 30 15.0135C30 23.2771 23.2771 30 15.0135 30C6.72246 30 0 23.2771 0 15.0135C0 6.72246 6.72246 0 15.0135 0ZM15 13C16.1046 13 17 13.8954 17 15C17 16.1046 16.1046 17 15 17C13.8954 17 13 16.1046 13 15C13 13.8954 13.8954 13 15 13ZM12 15C12 13.3431 13.3431 12 15 12C16.6569 12 18 13.3431 18 15C18 16.6569 16.6569 18 15 18C13.3431 18 12 16.6569 12 15Z" fill="#666A80"/>
</svg>
