<svg
 xmlns="http://www.w3.org/2000/svg"
 xmlns:xlink="http://www.w3.org/1999/xlink"
 width="500px" height="100px">
<path fill-rule="evenodd"  fill="rgb(255, 255, 255)"
 d="M485.883,83.945 C490.903,83.945 494.803,82.975 498.673,81.445 L499.874,84.845 C495.473,86.585 491.153,87.805 485.253,87.805 C472.092,87.805 468.072,80.065 468.072,68.644 L468.072,42.443 L453.551,42.443 L453.551,39.002 L468.152,38.582 L468.732,22.681 L472.492,22.681 L472.492,38.582 L498.053,38.582 L498.053,42.443 L472.492,42.443 L472.492,68.974 C472.492,78.325 475.162,83.945 485.883,83.945 ZM425.202,83.905 C431.723,83.905 437.073,80.995 441.373,77.005 L443.673,80.065 C438.733,84.715 432.533,87.805 425.032,87.805 C410.131,87.805 399.011,78.565 399.011,62.684 C399.011,46.623 410.831,37.382 425.162,37.382 C433.233,37.382 438.513,40.882 442.443,44.703 L439.863,47.743 C435.803,43.893 431.163,41.283 425.262,41.283 C412.452,41.283 403.651,50.043 403.651,62.684 C403.651,75.325 412.262,83.905 425.202,83.905 ZM345.946,63.204 C346.267,76.656 355.765,83.985 366.932,83.985 C373.453,83.985 378.583,81.905 383.073,78.825 L384.893,82.185 C380.513,84.995 375.143,87.805 366.692,87.805 C352.871,87.805 341.391,78.385 341.391,62.684 C341.391,47.003 352.931,37.382 365.432,37.382 C378.533,37.382 386.893,45.843 386.893,59.604 C386.893,60.804 386.843,62.004 386.643,63.204 L345.946,63.204 ZM365.492,41.203 C356.224,41.203 347.373,47.879 346.095,59.564 L382.828,59.564 C382.241,47.134 375.323,41.203 365.492,41.203 ZM306.932,87.805 C299.551,87.805 292.371,84.125 288.521,76.835 L291.831,74.144 C295.621,80.685 301.432,83.625 306.872,83.625 C317.872,83.625 322.593,77.825 322.593,65.844 L322.593,24.482 L293.931,24.482 L293.931,20.611 L327.193,20.611 L327.193,66.254 C327.193,78.175 322.213,87.805 306.932,87.805 ZM255.092,87.805 C241.891,87.805 229.290,78.205 229.290,61.604 C229.290,45.003 241.891,35.402 255.092,35.402 C268.293,35.402 280.894,45.003 280.894,61.604 C280.894,78.205 268.293,87.805 255.092,87.805 ZM255.092,49.203 C249.292,49.203 246.892,54.003 246.892,61.604 C246.892,69.204 249.292,74.004 255.092,74.004 C260.892,74.004 263.293,69.204 263.293,61.604 C263.293,54.003 260.892,49.203 255.092,49.203 ZM214.943,50.403 C209.242,50.403 203.142,53.403 199.442,61.804 L199.442,86.605 L182.241,86.605 L182.241,36.602 L196.342,36.602 L197.642,47.203 L198.042,47.203 C202.842,39.002 210.043,35.402 217.543,35.402 C222.143,35.402 224.243,36.202 227.044,37.402 L223.643,51.803 C220.643,50.903 218.543,50.403 214.943,50.403 ZM151.232,66.004 L144.032,66.004 L144.032,86.605 L126.831,86.605 L126.831,21.601 L151.232,21.601 C165.233,21.601 177.234,26.802 177.234,43.203 C177.234,59.104 164.833,66.004 151.232,66.004 ZM150.432,35.202 L144.032,35.202 L144.032,52.403 L150.432,52.403 C157.232,52.403 160.433,49.003 160.433,43.203 C160.433,37.402 156.832,35.202 150.432,35.202 ZM89.1000,100.000 L9.1000,100.000 C4.477,100.000 -0.000,95.523 -0.000,90.000 L-0.000,9.1000 C-0.000,4.477 4.477,-0.000 9.1000,-0.000 L89.1000,-0.000 C95.523,-0.000 99.1000,4.477 99.1000,9.1000 L99.1000,90.000 C99.1000,95.523 95.523,100.000 89.1000,100.000 ZM94.1000,11.1000 C94.1000,8.134 91.866,4.1000 88.000,4.1000 L11.1000,4.1000 C8.134,4.1000 5.000,8.134 5.000,11.1000 L5.000,88.000 C5.000,91.866 8.134,95.000 11.1000,95.000 L88.000,95.000 C91.866,95.000 94.1000,91.866 94.1000,88.000 L94.1000,11.1000 ZM82.1000,39.1000 L76.1000,39.1000 C73.134,39.1000 69.1000,36.866 69.1000,32.1000 L69.1000,16.1000 C69.1000,13.134 73.134,9.1000 76.1000,9.1000 L82.1000,9.1000 C86.866,9.1000 89.1000,13.134 89.1000,16.1000 L89.1000,32.1000 C89.1000,36.866 86.866,39.1000 82.1000,39.1000 ZM69.1000,62.1000 C69.1000,66.866 66.866,70.000 63.000,70.000 L56.1000,70.000 C53.134,70.000 49.1000,66.866 49.1000,62.1000 L49.1000,46.1000 C49.1000,43.134 53.134,39.1000 56.1000,39.1000 L63.000,39.1000 C66.866,39.1000 69.1000,43.134 69.1000,46.1000 L69.1000,62.1000 ZM49.1000,83.000 C49.1000,86.866 46.866,90.000 43.000,90.000 L36.1000,90.000 C33.134,90.000 30.000,86.866 30.000,83.000 L30.000,77.000 C30.000,73.134 33.134,70.000 36.1000,70.000 L43.000,70.000 C46.866,70.000 49.1000,73.134 49.1000,77.000 L49.1000,83.000 ZM22.1000,70.000 L16.1000,70.000 C13.134,70.000 9.1000,66.866 9.1000,62.1000 L9.1000,56.1000 C9.1000,53.134 13.134,50.000 16.1000,50.000 L22.1000,50.000 C26.866,50.000 30.000,53.134 30.000,56.1000 L30.000,62.1000 C30.000,66.866 26.866,70.000 22.1000,70.000 Z"/>
</svg>
