<svg
 xmlns="http://www.w3.org/2000/svg"
 xmlns:xlink="http://www.w3.org/1999/xlink"
 width="99px" height="100px">
<path fill-rule="evenodd"  fill="rgb(255, 255, 255)"
 d="M89.1000,100.000 L9.000,100.000 C4.029,100.000 0.000,95.971 0.000,91.000 L0.000,8.1000 C0.000,4.029 4.029,-0.000 9.000,-0.000 L89.1000,-0.000 C94.971,-0.000 98.1000,4.029 98.1000,8.1000 L98.1000,91.000 C98.1000,95.971 94.971,100.000 89.1000,100.000 ZM93.1000,9.1000 C93.1000,7.239 91.761,4.1000 88.1000,4.1000 L10.000,4.1000 C7.239,4.1000 5.000,7.239 5.000,9.1000 L5.000,89.000 C5.000,91.761 7.239,94.000 10.000,94.000 L88.1000,94.000 C91.761,94.000 93.1000,91.761 93.1000,89.000 L93.1000,9.1000 ZM83.1000,38.1000 L73.1000,38.1000 C71.239,38.1000 68.1000,36.761 68.1000,33.1000 L68.1000,14.000 C68.1000,11.239 71.239,8.1000 73.1000,8.1000 L83.1000,8.1000 C86.761,8.1000 88.1000,11.239 88.1000,14.000 L88.1000,33.1000 C88.1000,36.761 86.761,38.1000 83.1000,38.1000 ZM68.1000,65.000 C68.1000,67.761 66.761,70.000 63.1000,70.000 L53.1000,70.000 C51.239,70.000 49.000,67.761 49.000,65.000 L49.000,44.000 C49.000,41.239 51.239,38.1000 53.1000,38.1000 L63.1000,38.1000 C66.761,38.1000 68.1000,41.239 68.1000,44.000 L68.1000,65.000 ZM49.000,85.000 C49.000,87.761 46.761,90.000 43.1000,90.000 L35.000,90.000 C32.239,90.000 30.000,87.761 30.000,85.000 L30.000,74.1000 C30.000,72.239 32.239,70.000 35.000,70.000 L43.1000,70.000 C46.761,70.000 49.000,72.239 49.000,74.1000 L49.000,85.000 ZM25.000,70.000 L13.1000,70.000 C11.239,70.000 9.000,67.761 9.000,65.000 L9.000,55.000 C9.000,52.239 11.239,50.000 13.1000,50.000 L25.000,50.000 C27.761,50.000 30.000,52.239 30.000,55.000 L30.000,65.000 C30.000,67.761 27.761,70.000 25.000,70.000 Z"/>
</svg>
