<svg
 xmlns="http://www.w3.org/2000/svg"
 xmlns:xlink="http://www.w3.org/1999/xlink"
 width="1920px" height="1079px">
<defs>
<linearGradient id="PSgrad_0" x1="100%" x2="0%" y1="0%" y2="0%">
  <stop offset="0%" stop-color="rgb(13,166,242)" stop-opacity="1" />
  <stop offset="100%" stop-color="rgb(242,13,242)" stop-opacity="1" />
</linearGradient>

</defs>
<path fill-rule="evenodd"  opacity="0.502" fill="url(#PSgrad_0)"
 d="M1919.000,0.000 L1919.1000,0.000 L1919.1000,0.1000 L1919.000,0.000 ZM0.000,656.1000 C194.324,741.756 176.168,1013.284 394.000,958.1000 C686.460,886.119 775.000,1079.1000 775.000,1079.1000 L0.000,1079.1000 C0.000,1079.1000 0.000,667.338 0.000,656.1000 Z"/>
<path fill-rule="evenodd"  opacity="0.502" fill="url(#PSgrad_0)"
 d="M1919.000,0.000 L1919.1000,0.000 L1919.1000,0.1000 L1919.000,0.000 ZM0.000,740.855 C299.543,675.629 256.208,1012.685 548.000,982.1000 C747.357,962.719 826.562,1051.666 890.407,1079.1000 C720.153,1079.1000 0.000,1079.1000 0.000,1079.1000 C0.000,1079.1000 0.000,753.478 0.000,740.855 Z"/>
<path fill-rule="evenodd"  fill="url(#PSgrad_0)"
 d="M1919.000,0.000 L1919.1000,0.000 L1919.1000,0.1000 L1919.000,0.000 ZM0.000,854.757 C158.075,787.465 158.940,1035.499 365.414,1008.151 C534.813,985.714 568.177,1079.1000 568.177,1079.1000 L0.000,1079.1000 C0.000,1079.1000 0.000,863.912 0.000,854.757 Z"/>
</svg>
