<svg
 xmlns="http://www.w3.org/2000/svg"
 xmlns:xlink="http://www.w3.org/1999/xlink"
 width="1920px" height="1024px">
<defs>
<linearGradient id="PSgrad_0" x1="100%" x2="0%" y1="0%" y2="0%">
  <stop offset="0%" stop-color="rgb(13,166,242)" stop-opacity="1" />
  <stop offset="100%" stop-color="rgb(242,13,242)" stop-opacity="1" />
</linearGradient>

</defs>
<path fill-rule="evenodd"  opacity="0.502" fill="url(#PSgrad_0)"
 d="M0.000,-0.000 C463.695,46.442 559.168,665.554 1206.1000,481.890 C1645.579,357.550 1888.837,612.254 1919.1000,899.302 C1919.1000,868.148 1919.1000,-0.000 1919.1000,-0.000 L0.000,-0.000 C0.000,-0.000 23.751,-0.000 0.000,-0.000 Z"/>
<path fill-rule="evenodd"  opacity="0.502" fill="url(#PSgrad_0)"
 d="M0.000,128.201 C463.695,112.721 410.789,583.210 1095.1000,430.1000 C1689.734,299.110 1900.977,851.317 1919.1000,1024.000 C1919.1000,992.846 1919.1000,-0.000 1919.1000,-0.000 L0.000,-0.000 C0.000,-0.000 0.000,102.240 0.000,128.201 Z"/>
<path fill-rule="evenodd"  fill="url(#PSgrad_0)"
 d="M0.000,-0.000 C463.695,-0.000 559.168,609.549 1206.1000,361.000 C1645.579,192.733 1888.837,423.073 1919.1000,707.000 C1919.1000,675.846 1919.1000,-0.000 1919.1000,-0.000 L0.000,-0.000 C0.000,-0.000 8.164,-0.000 0.000,-0.000 Z"/>
</svg>
